<svg width="51" height="50" viewBox="0 0 51 50" fill="none" xmlns="http://www.w3.org/2000/svg"><g clip-path="url(#a)"><path d="M47.564 20.52l-3.7-.52a1.27 1.27 0 0 1-1-.86c-.293-.87-.647-1.72-1.06-2.54a1.28 1.28 0 0 1 .13-1.33l2.27-3a3 3 0 0 0-.26-4l-2.11-1.99a3 3 0 0 0-4-.26l-3 2.27a1.28 1.28 0 0 1-1.33.13c-.82-.413-1.67-.767-2.54-1.06a1.24 1.24 0 0 1-.85-1l-.49-3.69a3 3 0 0 0-3-2.64h-2.89a3 3 0 0 0-3 2.63l-.53 3.67a1.25 1.25 0 0 1-.84 1 18.93 18.93 0 0 0-2.55 1.06 1.28 1.28 0 0 1-1.33-.13L12.554 6a3 3 0 0 0-4 .26l-2.07 2.1a3 3 0 0 0-.26 4l2.27 3a1.26 1.26 0 0 1 .13 1.33 19 19 0 0 0-1.06 2.55 1.28 1.28 0 0 1-1 .85l-3.7.48a3 3 0 0 0-2.64 3v2.94a3 3 0 0 0 2.64 3l3.7.48a1.27 1.27 0 0 1 1 .86c.293.87.647 1.72 1.06 2.54a1.26 1.26 0 0 1-.13 1.33l-2.29 2.93a3 3 0 0 0 .26 4l2.09 2.08a3 3 0 0 0 4 .26l3-2.27a1.26 1.26 0 0 1 1.32-.13 17.78 17.78 0 0 0 2.55 1.06 1.25 1.25 0 0 1 .84 1l.49 3.7a3 3 0 0 0 3 2.63h2.94a3 3 0 0 0 3-2.63l.49-3.7a1.24 1.24 0 0 1 .85-1c.87-.293 1.72-.647 2.54-1.06a1.28 1.28 0 0 1 1.33.13l3 2.27a3 3 0 0 0 4-.26l2.09-2.08a3 3 0 0 0 .26-4l-2.27-3a1.26 1.26 0 0 1-.13-1.33c.413-.82.767-1.67 1.06-2.54a1.27 1.27 0 0 1 1-.86l3.7-.48a3 3 0 0 0 2.64-3v-2.91a3 3 0 0 0-2.69-3.01z" fill="#00509C"/><path d="M25.204 35a10 10 0 1 1 0-20 10 10 0 0 1 0 20z" fill="#00509C"/><path d="M25.204 17a8 8 0 1 1 0 16 8 8 0 0 1 0-16zm0-4a12 12 0 1 0 0 24 12 12 0 0 0 0-24z" fill="#FF6813"/></g><defs><clipPath id="a"><path fill="#fff" transform="translate(.204)" d="M0 0h50v50H0z"/></clipPath></defs></svg>