<svg width="51" height="50" viewBox="0 0 51 50" fill="none" xmlns="http://www.w3.org/2000/svg"><g clip-path="url(#a)" stroke-width="2.5" stroke-miterlimit="10"><path d="M25.179 48.987c6.628 0 12-10.741 12-23.992 0-13.25-5.372-23.992-12-23.992S13.177 11.744 13.177 24.995c0 13.25 5.374 23.992 12.002 23.992zm0-47.984v47.994" stroke="#29B8F5"/><path d="M24.898 36.866c-7.139 0-13.555 1.564-17.957 4.01M42.865 9.084c-4.402 2.476-10.819 4.01-17.967 4.01M6.941 9.084c4.402 2.476 10.818 4.01 17.957 4.01M1.186 24.995h47.995m-6.316 15.911c-4.402-2.476-10.819-4.01-17.967-4.01" stroke="#FF6813"/><path d="M25.179 48.987c13.25 0 23.992-10.741 23.992-23.992 0-13.25-10.742-23.992-23.992-23.992-13.251 0-23.993 10.741-23.993 23.992 0 13.25 10.742 23.992 23.993 23.992z" stroke="#004E9C"/></g><defs><clipPath id="a"><path fill="#fff" transform="translate(.184)" d="M0 0h50v50H0z"/></clipPath></defs></svg>