<svg width="32" height="50" viewBox="0 0 32 50" fill="none" xmlns="http://www.w3.org/2000/svg"><g clip-path="url(#a)"><path d="M23.019 9.2l1 1.19 5.72-4.6a.81.81 0 0 0 .28-.6.778.778 0 0 0-.28-.59L23.969 0l-1 1.18 3.83 3.09H2.209v1.52h25l-4.19 3.41zM7.939 40.8l-1-1.19-5.71 4.6a.79.79 0 0 0-.29.6.75.75 0 0 0 .29.59l5.75 4.6 1-1.18-3.84-3.09h24.6v-1.52h-25l4.2-3.41zm8.15-22.4v21.21l14.93-8.29V18.4h-14.93z" fill="#00509C"/><path d="M16.089 18.4H1.149v12.92l14.94 8.29V18.4z" fill="#FF6813"/><path d="M16.089 10.1l-14.94 8.3 14.94 8.29 14.93-8.29-14.93-8.3z" fill="#67D2FF"/></g><defs><clipPath id="a"><path fill="#fff" transform="translate(.979)" d="M0 0h30.04v50H0z"/></clipPath></defs></svg>