<svg width="53" height="50" viewBox="0 0 53 50" fill="none" xmlns="http://www.w3.org/2000/svg"><g clip-path="url(#a)"><path d="M44.474 15.15l.83-1.27s-.47-2.82 2.9-2.82 3.68.61 3.68 1.68c0 1.07-2 2.41-3.68 2.41-2.45 0-2.45 1.12-2.45 1.12l-1.28-1.12zm-36.54 0l-.83-1.27s.47-2.82-2.9-2.82-3.68.61-3.68 1.68c0 1.07 2 2.41 3.68 2.41 2.45 0 2.45 1.12 2.45 1.12l1.28-1.12zm40.77 9.05h-4.75a1.77 1.77 0 0 0-1.77 1.77v13.94c0 .978.792 1.77 1.77 1.77h4.75a1.77 1.77 0 0 0 1.77-1.77V25.97a1.77 1.77 0 0 0-1.77-1.77zm-45 17.49h4.75a1.77 1.77 0 0 0 1.77-1.77V25.98a1.77 1.77 0 0 0-1.77-1.77h-4.75a1.77 1.77 0 0 0-1.77 1.77v13.94c0 .977.792 1.77 1.77 1.77z" fill="#00509C"/><path d="M26.284 12.63c5.496-.09 10.991.268 16.43 1.07 1.32 0 1.35-.22 1.27-.64a66.767 66.767 0 0 0-2.67-7.95 3.37 3.37 0 0 0-2.64-1.95 106.268 106.268 0 0 0-12.39-.6c-4.188-.035-8.375.165-12.54.6a3.42 3.42 0 0 0-2.66 2 66.203 66.203 0 0 0-2.66 7.94c-.08.42 0 .64 1.27.64a105.271 105.271 0 0 1 16.59-1.11z" fill="#fff"/><path d="M50.204 18.31c-.66-1.4-2.69-3.13-3.64-4.23-.95-1.1-1.14-5.22-3.25-9-2.11-3.78-4.6-5-17.07-5h-.16C13.654 0 11.204 1.23 9.054 5c-2.15 3.77-2.29 8-3.25 9.08s-3 2.83-3.64 4.23c-.64 1.4-.69 12.33-.69 14.27 0 1.94 1.38 3.84 7.48 3.84h34.5c6.1 0 7.48-1.91 7.48-3.84s-.02-12.88-.73-14.27zm-41.78-5.25a66.182 66.182 0 0 1 2.66-7.94 3.42 3.42 0 0 1 2.66-2c4.165-.435 8.352-.635 12.54-.6 4.138-.041 8.275.159 12.39.6a3.37 3.37 0 0 1 2.64 2 66.8 66.8 0 0 1 2.67 8c.08.42 0 .64-1.27.64a101.382 101.382 0 0 0-16.43-1.07 105.268 105.268 0 0 0-16.59 1.01c-1.32 0-1.35-.22-1.27-.64zm0 13.36l-3.38-.87c-2.43-.63-2.09-3.19-2.12-4.05-.03-.86.36-1 1.16-.69l4.34 1.91v3.7zm39-.87l-3.38.87v-3.7l4.34-1.91c.8-.34 1.18-.17 1.16.69-.02.86.28 3.42-2.15 4.05h.03z" fill="#FF6813"/><path d="M40.574 30.8l2.82-4.24-3.61-1.9s-8.93.22-13.58.23c-4.65.01-13.58-.23-13.58-.23l-3.61 1.9 2.82 4.24a4.32 4.32 0 0 0 3.6 1.92h21.54a4.32 4.32 0 0 0 3.6-1.92z" fill="#00509C"/><path d="M12.704 27.45h27m-27 2.27h27" stroke="#67D2FF" stroke-miterlimit="10"/><path d="M50.424 38.46l.01.06.05-.04-.02-.05-.04.03zm-48.49.02l.04.04.02-.06-.04-.03-.02.05z" fill="#00509C"/><path d="M49.514 21.5c0-.86-.36-1-1.16-.69l-8.65 3.81h.08l3.61 1.9 4-1c2.43-.6 2.09-3.16 2.12-4.02zm-36.81 3.12l-8.65-3.81c-.8-.34-1.18-.17-1.16.69.02.86-.31 3.42 2.12 4.05l4 1 3.61-1.9.08-.03z" fill="#fff"/><path d="M2.204 50a1.99 1.99 0 1 0 0-3.98 1.99 1.99 0 0 0 0 3.98zm6 0a1.99 1.99 0 1 0 0-3.98 1.99 1.99 0 0 0 0 3.98zm6 0a1.99 1.99 0 1 0 0-3.98 1.99 1.99 0 0 0 0 3.98zm6 0a1.99 1.99 0 1 0 0-3.98 1.99 1.99 0 0 0 0 3.98zm6 0a1.99 1.99 0 1 0 0-3.98 1.99 1.99 0 0 0 0 3.98zm6 0a1.99 1.99 0 1 0 0-3.98 1.99 1.99 0 0 0 0 3.98zm6 0a1.99 1.99 0 1 0 0-3.98 1.99 1.99 0 0 0 0 3.98zm6 0a1.99 1.99 0 1 0 0-3.98 1.99 1.99 0 0 0 0 3.98zm6.01 0a1.99 1.99 0 1 0 0-3.98 1.99 1.99 0 0 0 0 3.98z" fill="#29B8F5"/></g><defs><clipPath id="a"><path fill="#fff" transform="translate(.214)" d="M0 0h51.99v50H0z"/></clipPath></defs></svg>